<svg data-v-0dd9719b="" version="1.0" xmlns="http://www.w3.org/2000/svg" xmlns:xlink="http://www.w3.org/1999/xlink" width="100%" height="100%" viewBox="0 0 340.000000 250.000000" preserveAspectRatio="xMidYMid meet" color-interpolation-filters="sRGB" style="margin: auto;"> <rect data-v-0dd9719b="" x="0" y="0" width="100%" height="100%" fill="#fff" fill-opacity="1" class="background"></rect> <rect data-v-0dd9719b="" x="0" y="0" width="100%" height="100%" fill="url(#watermark)" fill-opacity="1" class="watermarklayer"></rect> <g data-v-0dd9719b="" fill="#333" class="icon-text-wrapper icon-svg-group iconsvg" transform="translate(49.535003662109375,92.12940979003906)"><g class="iconsvg-imagesvg" transform="translate(0,0)"><g><rect fill="#333" fill-opacity="0" stroke-width="2" x="0" y="0" width="60" height="65.74117698620532" class="image-rect"></rect> <svg x="0" y="0" width="60" height="65.74117698620532" filtersec="colorsb7651532172" class="image-svg-svg primary" style="overflow: visible;"><svg xmlns="http://www.w3.org/2000/svg" viewBox="0.0018437110120430589 0 91.22099304199219 99.94999694824219"><path d="M71.1 48.23c0-1.43 0-2.84-.1-4.23 0-1.09-.13-2.16-.22-3.23-.18-2.27-.41-4.49-.75-6.64-.17-1.11-.38-2.19-.6-3.27a72.55 72.55 0 0 0-2.27-8.67c-.25-.75-.51-1.48-.78-2.2-.59-1.56-1.22-3-1.9-4.44-.35-.71-.69-1.42-1.06-2.1C58.85 5.1 52.61 0 45.61 0c-11 0-20.2 12.65-23.81 30.86 1.78-1.36 3.62-2.69 5.58-4C31 13.64 37.91 4.48 45.61 4.48c4.84 0 9.35 3.63 12.94 9.6.4.65.77 1.34 1.14 2a47 47 0 0 1 2 4.27c.28.69.53 1.41.78 2.13.5 1.4 1 2.85 1.39 4.36q.43 1.61.81 3.27c.46 2.06.85 4.2 1.15 6.41.15 1 .29 2.06.39 3.13a84.71 84.71 0 0 1 .43 8.53 77.59 77.59 0 0 1-4.17 25.7c-.25.72-.51 1.44-.78 2.13-.62 1.53-1.29 2.94-2 4.29-.36.69-.73 1.36-1.11 2-2.44 4.05-5.3 7-8.39 8.49a5.68 5.68 0 0 0-4.57-2.41 5.79 5.79 0 0 0 0 11.57 5.71 5.71 0 0 0 5.57-4.69C55.9 93.38 60.1 89.07 63.41 83c.37-.67.72-1.38 1.06-2.09q1-2.11 1.91-4.45c.27-.72.53-1.45.78-2.2a83.14 83.14 0 0 0 3.94-26.03z" fill="#1d3bd4"></path><path d="M36.26 74.69C23 78.14 11.58 76.77 7.72 70.1c-2.42-4.19-1.52-9.91 1.85-16 .37-.66.78-1.33 1.21-2a46.78 46.78 0 0 1 2.7-3.86c.46-.58 1-1.17 1.46-1.75 1-1.13 2-2.26 3.08-3.38.78-.78 1.59-1.56 2.43-2.33 1.55-1.43 3.2-2.84 5-4.21.83-.64 1.65-1.28 2.52-1.9C30.19 33 32.59 31.48 35.1 30a77.72 77.72 0 0 1 24.34-9.24 43 43 0 0 0-2-4.24 82.63 82.63 0 0 0-24.52 9.6c-1.24.72-2.43 1.46-3.61 2.21-.92.59-1.81 1.19-2.69 1.8-1.87 1.29-3.68 2.61-5.37 4-.88.71-1.71 1.43-2.53 2.15a71.93 71.93 0 0 0-6.38 6.31c-.53.59-1 1.18-1.52 1.77Q9.2 46.3 7.88 48.23c-.44.65-.88 1.31-1.28 2-5 8.13-6.25 16.09-2.75 22.15 3.37 5.84 10.48 8.73 19.51 8.73a60.61 60.61 0 0 0 19.11-3.53c-2.06-.9-4.13-1.84-6.21-2.89zM6.6 46.26c.91-1.3 1.89-2.6 3-3.9-2.26-4.1-3.38-8-3.15-11.43a5.76 5.76 0 0 0 2.23-10.71 5.87 5.87 0 0 0-2.89-.77 5.81 5.81 0 0 0-5 2.89 5.72 5.72 0 0 0-.59 4.39 5.64 5.64 0 0 0 1.86 2.78C1.37 34.57 3 40.36 6.6 46.26zM72.56 36.28c.29 2.23.52 4.49.65 6.82 9.64 9.8 14.14 20.34 10.3 27-2.42 4.19-7.83 6.28-14.8 6.41q-.87 2.35-1.88 4.51h1c9 0 16.14-2.89 19.51-8.73 5.56-9.51-.82-23.77-14.78-36.01z" fill="#1d3bd4"></path><path d="M45.61 71.56c-1-.4-1.93-.79-2.91-1.23a86.795 86.795 0 0 1-7.6-3.9A77.78 77.78 0 0 1 14.93 50a44 44 0 0 0-2.64 3.9 82.87 82.87 0 0 0 20.58 16.4c1.24.72 2.48 1.38 3.72 2 1 .51 1.94 1 2.9 1.43q3.09 1.47 6.12 2.66c1.06.4 2.1.77 3.15 1.13a71.29 71.29 0 0 0 8.64 2.38 42.75 42.75 0 0 0 2-4.23c-1.46-.27-2.95-.59-4.47-1-1.07-.28-2.15-.6-3.24-.93-1.97-.61-4.02-1.34-6.08-2.18zM90.45 22.34a5.81 5.81 0 0 0-5-2.89 5.63 5.63 0 0 0-1.9.37c-4-3.09-9.84-4.56-16.71-4.4.68 1.45 1.31 3 1.89 4.53 4.71.09 8.68 1.09 11.52 3a5.72 5.72 0 0 0 .2 5.17 5.81 5.81 0 0 0 5 2.89 5.79 5.79 0 0 0 5-8.68z" fill="#1d3bd4"></path><circle cx="45.61" cy="48.81" r="11.16" fill="#f39a2c"></circle></svg></svg> <!----></g></g> <g transform="translate(67,4.314342498779297)"><g data-gra="path-name" fill-rule="" class="tp-name iconsvg-namesvg" transform="translate(0,0)"><g transform="scale(1)"><g><path d="M40.91 3.82L35.28 3.82 35.28 0.63 4.32 0.63 4.32-28.44 9.81-28.44 9.81-4.86 19.66-4.86 19.66-37.8 25.29-37.8 25.29-4.86 35.28-4.86 35.28-28.62 40.91-28.62 40.91 3.82ZM54.81 3.73L49.59 3.73 49.59-25.61 60.21-25.61 60.21-30.51 47.34-30.51 47.34-35.64 87.57-35.64 87.57-30.51 74.75-30.51 74.75-25.61 86-25.61 86 3.65 80.55 3.65 80.55 1.17 54.81 1.17 54.81 3.73ZM54.81-10.44L54.81-3.73 80.55-3.73 80.55-9.31 75.38-9.31Q71.91-9.31 70.78-10.71L70.78-10.71Q69.66-12.06 69.66-15.93L69.66-15.93 69.66-20.7 64.94-20.7Q64.44-11.7 56.61-8.1L56.61-8.1Q56.16-8.91 54.81-10.44L54.81-10.44ZM54.81-20.7L54.81-12.6Q57.64-14.13 58.95-16.34L58.95-16.34Q59.98-18.13 60.16-20.7L60.16-20.7 54.81-20.7ZM76.19-14.31L76.19-14.31 79.74-14.31Q80.19-14.31 80.55-14.4L80.55-14.4 80.55-20.7 74.75-20.7 74.75-15.93Q74.75-14.85 74.99-14.58 75.24-14.31 76.19-14.31ZM64.98-30.51L64.98-25.61 69.66-25.61 69.66-30.51 64.98-30.51ZM101.92 3.82L96.84 3.82 96.84-14.35 128.3-14.35 128.3 3.46 122.94 3.46 122.94 2.48 101.92 2.48 101.92 3.82ZM101.92-4L101.92-1.57 109.75-1.57 109.75-4 101.92-4ZM114.97-4L114.97-1.57 122.94-1.57 122.94-4 114.97-4ZM101.92-10.3L101.92-7.92 109.75-7.92 109.75-10.3 101.92-10.3ZM114.97-10.3L114.97-7.92 122.94-7.92 122.94-10.3 114.97-10.3ZM114.97-15.21L109.75-15.21 109.75-26.55 97.52-26.55 97.52-20.38 92.79-20.38 92.79-30.64 109.75-30.64 109.75-32.45 95.85-32.45 95.85-36.63 129.01-36.63 129.01-32.45 114.97-32.45 114.97-30.64 132.3-30.64 132.3-20.38 127.35-20.38 127.35-26.55 114.97-26.55 114.97-15.21ZM108.36-16.25L98.01-16.25 98.01-19.8 108.36-19.8 108.36-16.25ZM126.9-16.25L116.41-16.25 116.41-19.8 126.9-19.8 126.9-16.25ZM108.31-21.38L99-21.38 99-24.84 108.31-24.84 108.31-21.38ZM125.82-21.38L116.41-21.38 116.41-24.84 125.82-24.84 125.82-21.38ZM137.29 2.11L137.29 2.11 136.35-3.38Q139.59-3.92 148.72-5.8L148.72-5.8Q151.06-6.3 152.24-6.52L152.24-6.52 152.82-1.53Q150.03-0.85 144.45 0.45L144.45 0.45Q139.46 1.57 137.29 2.11ZM178.25 1.21L153.27 1.21 153.27-4.14 162.76-4.14 162.76-28.98 154.03-28.98 154.03-34.34 177.3-34.34 177.3-28.98 168.62-28.98 168.62-4.14 178.25-4.14 178.25 1.21ZM138.15-7.69L138.15-7.69Q137.56-10.08 136.35-12.82L136.35-12.82Q137.21-13 138.15-13.72L138.15-13.72Q138.78-14.22 140.18-15.62L140.18-15.62Q141.48-16.83 143.69-19.71L143.69-19.71Q139.05-19.21 137.75-18.59L137.75-18.59Q137.25-20.56 135.99-23.71L135.99-23.71Q137.16-24.07 138.74-26.32L138.74-26.32Q139.72-27.58 141.39-30.91L141.39-30.91Q143.41-34.83 144.59-38.34L144.59-38.34 149.94-36.18Q147.19-29.88 143.19-24.3L143.19-24.3 147.15-24.61Q148.91-27.31 149.9-29.25L149.9-29.25 154.62-26.23Q150.71-19.89 145.53-14.4L145.53-14.4 153.09-15.43Q152.95-13.09 153.31-10.71L153.31-10.71Q144.81-9.4 141.75-8.78L141.75-8.78Q139.19-8.23 138.15-7.69Z" transform="translate(-4.320000171661377, 38.34000015258789)"></path></g> <!----> <!----> <!----> <!----> <!----> <!----> <!----></g></g> <g data-gra="path-slogan" fill-rule="" class="tp-slogan iconsvg-slogansvg" fill="#333" transform="translate(5,48.15999984741211)"><rect x="0" height="1" y="3.9750003814697266" width="27.189170837402344"></rect> <rect height="1" y="3.9750003814697266" width="27.189170837402344" x="136.7408218383789"></rect> <g transform="translate(30.189170837402344,0)"><g transform="scale(1)"><path d="M7.17-6.09L7.17-6.09L6.09-6.09Q6-7.73 3.94-7.83L3.94-7.83Q2.02-7.78 2.02-6.33L2.02-6.33Q2.02-5.39 3.05-5.25L3.05-5.25L5.48-4.69Q7.41-4.22 7.41-2.34L7.41-2.34Q7.36 0.05 4.03 0.14L4.03 0.14Q2.20 0.14 1.45-0.61L1.45-0.61Q0.52-1.31 0.56-2.77L0.56-2.77L1.69-2.77Q1.73-0.80 4.03-0.75L4.03-0.75Q6.28-0.80 6.33-2.20L6.33-2.20Q6.52-3.38 4.45-3.75L4.45-3.75L2.67-4.13Q0.84-4.64 0.84-6.19L0.84-6.19Q0.98-8.72 3.84-8.81L3.84-8.81Q7.08-8.81 7.17-6.09ZM10.03-5.06L14.53-5.06L14.53-8.58L15.70-8.58L15.70 0L14.53 0L14.53-3.98L10.03-3.98L10.03 0L8.86 0L8.86-8.58L10.03-8.58L10.03-5.06ZM23.16 0L22.31-2.48L18.84-2.48L17.95 0L16.78 0L20.02-8.58L21.33-8.58L24.42 0L23.16 0ZM20.58-7.31L19.22-3.52L21.89-3.52L20.63-7.31L20.58-7.31ZM26.86-8.58L31.17-1.64L31.17-8.58L32.30-8.58L32.30 0L30.98 0L26.63-6.94L26.58-6.94L26.58 0L25.45 0L25.45-8.58L26.86-8.58ZM40.83-8.58L37.92-4.41L40.97 0L39.52 0L37.17-3.52L34.83 0L33.42 0L36.52-4.41L33.61-8.58L35.06-8.58L37.22-5.30L39.42-8.58L40.83-8.58ZM42.23-8.58L43.41-8.58L43.41 0L42.23 0L42.23-8.58ZM48.70-8.58L49.88-8.58L49.88-1.03L54.23-1.03L54.23 0L48.70 0L48.70-8.58ZM56.67-1.03L61.83-1.03L61.83 0L55.50 0L55.50-8.58L61.73-8.58L61.73-7.59L56.67-7.59L56.67-4.92L61.36-4.92L61.36-3.89L56.67-3.89L56.67-1.03ZM63.52-8.58L64.69-8.58L64.69 0L63.52 0L63.52-8.58ZM71.16-5.06L75.66-5.06L75.66-8.58L76.83-8.58L76.83 0L75.66 0L75.66-3.98L71.16-3.98L71.16 0L69.98 0L69.98-8.58L71.16-8.58L71.16-5.06ZM85.41-4.27L85.41-4.27Q85.22-7.64 82.41-7.83L82.41-7.83Q79.55-7.69 79.41-4.27L79.41-4.27Q79.55-0.94 82.41-0.80L82.41-0.80Q85.22-0.98 85.41-4.27ZM86.58-4.27L86.58-4.27Q86.30 0 82.41 0.14L82.41 0.14Q78.47 0 78.19-4.27L78.19-4.27Q78.42-8.72 82.41-8.81L82.41-8.81Q86.30-8.67 86.58-4.27ZM89.34-8.58L93.66-1.64L93.66-8.58L94.78-8.58L94.78 0L93.47 0L89.11-6.94L89.06-6.94L89.06 0L87.94 0L87.94-8.58L89.34-8.58ZM102.98-3.61L100.36-3.61L100.36-4.59L104.11-4.59L104.11 0L103.36 0L103.08-1.08Q102.09 0.09 100.27 0.14L100.27 0.14Q98.53 0.14 97.59-0.75L97.59-0.75Q96.19-2.06 96.23-4.36L96.23-4.36Q96.56-8.63 100.31-8.81L100.31-8.81Q103.50-8.63 103.97-6L103.97-6L102.84-6Q102.38-7.78 100.27-7.83L100.27-7.83Q97.59-7.64 97.45-4.31L97.45-4.31Q97.45-0.75 100.31-0.75L100.31-0.75Q101.34-0.75 102.09-1.31L102.09-1.31Q103.03-2.06 102.98-3.61L102.98-3.61Z" transform="translate(-0.5602678571428572, 8.8125)"></path></g></g></g></g></g><defs v-gra="od"></defs></svg>